<?xml version="1.0" encoding="UTF-8" standalone="no"?>
<svg
   version="1.1"
   width="2000"
   height="1500"
   viewBox="0 0 2000 1500"
   id="svg16"
   sodipodi:docname="band-boosters-meeting.svg"
   inkscape:version="1.4.3 (0d15f75042, 2025-12-25)"
   xmlns:inkscape="http://www.inkscape.org/namespaces/inkscape"
   xmlns:sodipodi="http://sodipodi.sourceforge.net/DTD/sodipodi-0.dtd"
   xmlns="http://www.w3.org/2000/svg"
   xmlns:svg="http://www.w3.org/2000/svg">
  <defs
     id="defs16" />
  <sodipodi:namedview
     id="namedview16"
     pagecolor="#ffffff"
     bordercolor="#000000"
     borderopacity="0.25"
     inkscape:showpageshadow="2"
     inkscape:pageopacity="0.0"
     inkscape:pagecheckerboard="0"
     inkscape:deskcolor="#d1d1d1"
     inkscape:zoom="0.78133333"
     inkscape:cx="1000.2133"
     inkscape:cy="750"
     inkscape:window-width="2560"
     inkscape:window-height="1383"
     inkscape:window-x="1080"
     inkscape:window-y="330"
     inkscape:window-maximized="1"
     inkscape:current-layer="svg16" />
  <rect
     width="2000"
     height="1500"
     fill="#723a6e"
     id="rect1"
     sodipodi:insensitive="true"
     x="0"
     y="0" />
  <g
     transform="matrix(0.75,0,0,0.75,249.090909090909,493.8574710948252)"
     id="g15">
    <svg
       viewBox="0 0 396 135"
       data-background-color="#723a6e"
       preserveAspectRatio="xMidYMid meet"
       height="681"
       width="2000"
       version="1.1"
       id="svg15">
      <g
         id="tight-bounds"
         transform="matrix(1,0,0,1,0.2400000000000091,0.20287107625765088)">
        <svg
           viewBox="0 0 395.52 134.5942578474847"
           height="134.5942578474847"
           width="395.52"
           version="1.1"
           id="svg14">
          <g
             id="g14">
            <svg
               viewBox="0 0 670.1682681859209 228.05623151653043"
               height="134.5942578474847"
               width="395.52"
               version="1.1"
               id="svg13">
              <g
                 id="g1">
                <rect
                   width="5.4218958345035295"
                   height="228.05623151653043"
                   x="255.0329277584762"
                   y="0"
                   fill="#bebebe"
                   opacity="1"
                   stroke-width="0"
                   stroke="transparent"
                   fill-opacity="1"
                   class="rect-yte-0"
                   data-fill-palette-color="primary"
                   rx="1%"
                   id="yte-0"
                   data-palette-color="#bebebe" />
              </g>
              <g
                 transform="translate(274.64827,-33.469942)"
                 id="g9">
                <svg
                   viewBox="0 0 395.52 226.92162"
                   height="226.92163"
                   width="395.51999"
                   version="1.1"
                   id="svg9">
                  <g
                     id="textblocktransform">
                    <svg
                       viewBox="0 0 395.52 226.92162"
                       height="226.92163"
                       width="395.51999"
                       id="textblock"
                       version="1.1">
                      <g
                         id="g6">
                        <svg
                           viewBox="0 0 395.52 194.24527"
                           height="194.24527"
                           width="395.51999"
                           version="1.1"
                           id="svg6">
                          <g
                             id="g5">
                            <svg
                               width="395.51999"
                               viewBox="3.66 -38.38 256.5 122.97"
                               height="194.24527"
                               data-palette-color="#bebebe"
                               version="1.1"
                               id="svg5">
                              <svg
                                 version="1.1"
                                 id="svg1"
                                 width="100%"
                                 height="100%" />
                              <svg
                                 version="1.1"
                                 id="svg2"
                                 width="100%"
                                 height="100%" />
                              <svg
                                 version="1.1"
                                 id="svg3"
                                 width="100%"
                                 height="100%" />
                              <g
                                 class="wordmark-text-0"
                                 data-fill-palette-color="primary"
                                 id="text-0">
                                <path
                                   transform="translate(0,41.99)"
                                   d="M 17.36,0 H 9.94 C 8.26,0 6.987,-0.21 6.12,-0.63 5.247,-1.057 4.66,-1.75 4.36,-2.71 4.06,-3.67 3.91,-4.947 3.91,-6.54 v 0 -21.93 c 0,-1.627 0.15,-2.917 0.45,-3.87 0.3,-0.947 0.887,-1.63 1.76,-2.05 0.867,-0.413 2.14,-0.62 3.82,-0.62 v 0 h 6.71 c 3.907,0 6.91,0.717 9.01,2.15 2.1,1.433 3.15,3.45 3.15,6.05 v 0 c 0,1.287 -0.293,2.46 -0.88,3.52 -0.587,1.06 -1.357,1.963 -2.31,2.71 -0.953,0.747 -1.99,1.307 -3.11,1.68 v 0 0.1 c 1.433,0.193 2.727,0.66 3.88,1.4 1.16,0.747 2.083,1.71 2.77,2.89 0.693,1.18 1.04,2.533 1.04,4.06 v 0 c 0,2.28 -0.55,4.197 -1.65,5.75 -1.1,1.553 -2.613,2.727 -4.54,3.52 C 22.083,-0.393 19.867,0 17.36,0 Z m -5.57,-26.17 v 17.31 c 0,1.087 0.197,1.867 0.59,2.34 0.387,0.473 1.12,0.71 2.2,0.71 v 0 h 1.85 c 1.647,0 2.97,-0.423 3.97,-1.27 1,-0.847 1.5,-2.003 1.5,-3.47 v 0 c 0,-1.4 -0.49,-2.497 -1.47,-3.29 -0.973,-0.8 -2.233,-1.2 -3.78,-1.2 v 0 h 0.02 c -0.387,0 -0.677,-0.057 -0.87,-0.17 v 0 c -0.427,-0.28 -0.863,-0.6 -1.31,-0.96 -0.447,-0.367 -0.93,-0.81 -1.45,-1.33 v 0 c -0.167,-0.213 -0.25,-0.37 -0.25,-0.47 v 0 c 0,-0.127 0.083,-0.28 0.25,-0.46 v 0 c 0.52,-0.52 1.003,-0.97 1.45,-1.35 0.447,-0.373 0.883,-0.69 1.31,-0.95 v 0 c 0.227,-0.113 0.517,-0.17 0.87,-0.17 v 0 h -0.02 c 0.96,0 1.843,-0.357 2.65,-1.07 0.807,-0.72 1.21,-1.843 1.21,-3.37 v 0 c 0,-1.547 -0.433,-2.577 -1.3,-3.09 -0.86,-0.513 -1.967,-0.77 -3.32,-0.77 v 0 h -1.31 c -1.08,0 -1.813,0.227 -2.2,0.68 -0.393,0.46 -0.59,1.243 -0.59,2.35 z M 41.92,0.61 v 0 c -2.393,0 -4.293,-0.67 -5.7,-2.01 -1.407,-1.347 -2.11,-3.2 -2.11,-5.56 v 0 c 0,-1.22 0.223,-2.353 0.67,-3.4 0.447,-1.053 1.227,-1.983 2.34,-2.79 1.113,-0.807 2.677,-1.453 4.69,-1.94 2.007,-0.487 4.573,-0.77 7.7,-0.85 v 0 c 0,-1.48 -0.37,-2.547 -1.11,-3.2 -0.74,-0.653 -1.85,-0.98 -3.33,-0.98 v 0 c -1.333,0 -2.423,0.23 -3.27,0.69 -0.847,0.453 -1.377,0.76 -1.59,0.92 v 0 c -0.227,0.2 -0.503,0.273 -0.83,0.22 v 0 c -0.44,-0.06 -0.907,-0.173 -1.4,-0.34 -0.5,-0.16 -1.033,-0.347 -1.6,-0.56 v 0 c -0.087,-0.033 -0.177,-0.087 -0.27,-0.16 -0.1,-0.073 -0.157,-0.183 -0.17,-0.33 v 0 c 0,-0.08 0.007,-0.18 0.02,-0.3 0.02,-0.127 0.06,-0.35 0.12,-0.67 v 0 c 0.067,-0.327 0.167,-0.73 0.3,-1.21 0.127,-0.48 0.247,-0.85 0.36,-1.11 v 0 c 0.147,-0.28 0.393,-0.54 0.74,-0.78 v 0 c 0.273,-0.233 1.11,-0.6 2.51,-1.1 1.4,-0.507 3.427,-0.76 6.08,-0.76 v 0 c 7.307,0 10.96,3.557 10.96,10.67 v 0 13.82 c 0,0.307 -0.087,0.57 -0.26,0.79 C 56.603,-0.11 56.317,0 55.91,0 v 0 h -3.66 c -0.26,0 -0.493,-0.037 -0.7,-0.11 -0.2,-0.073 -0.39,-0.217 -0.57,-0.43 v 0 l -1.52,-1.95 h -0.17 c -0.747,1.093 -1.75,1.883 -3.01,2.37 -1.267,0.487 -2.72,0.73 -4.36,0.73 z m 2.68,-5.66 v 0 c 1.5,0 2.633,-0.383 3.4,-1.15 0.767,-0.767 1.253,-1.557 1.46,-2.37 v 0 -2.71 c -2.26,0 -3.957,0.177 -5.09,0.53 -1.127,0.347 -1.88,0.8 -2.26,1.36 -0.373,0.567 -0.56,1.173 -0.56,1.82 v 0 c 0,0.947 0.293,1.603 0.88,1.97 0.587,0.367 1.31,0.55 2.17,0.55 z m 43.19,-10.5 v 0 14.26 c 0,0.487 -0.1,0.823 -0.3,1.01 C 87.283,-0.093 86.937,0 86.45,0 v 0 h -5.03 c -0.487,0 -0.833,-0.093 -1.04,-0.28 -0.2,-0.187 -0.3,-0.523 -0.3,-1.01 v 0 -12.99 c 0,-1.773 -0.373,-3.067 -1.12,-3.88 -0.753,-0.813 -1.773,-1.22 -3.06,-1.22 v 0 c -1.287,0 -2.273,0.277 -2.96,0.83 -0.693,0.553 -1.227,1.25 -1.6,2.09 v 0 15.17 c 0,0.487 -0.103,0.823 -0.31,1.01 C 70.83,-0.093 70.487,0 70,0 v 0 h -5.03 c -0.493,0 -0.84,-0.093 -1.04,-0.28 -0.207,-0.187 -0.31,-0.523 -0.31,-1.01 v 0 -20.46 c 0,-0.393 0.083,-0.697 0.25,-0.91 v 0 c 0.34,-0.453 0.75,-0.917 1.23,-1.39 0.48,-0.473 1.07,-0.977 1.77,-1.51 v 0 c 0.213,-0.167 0.417,-0.25 0.61,-0.25 v 0 c 0.18,0 0.383,0.083 0.61,0.25 v 0 c 0.687,0.533 1.273,1.047 1.76,1.54 0.487,0.487 0.917,0.99 1.29,1.51 v 0 h 0.12 c 0.28,-0.36 0.697,-0.78 1.25,-1.26 0.553,-0.48 1.33,-0.907 2.33,-1.28 1,-0.373 2.283,-0.56 3.85,-0.56 v 0 c 1.527,0 2.983,0.31 4.37,0.93 1.38,0.62 2.513,1.66 3.4,3.12 0.887,1.467 1.33,3.47 1.33,6.01 z m 15.43,16.16 v 0 c -2.16,0 -4.003,-0.533 -5.53,-1.6 -1.52,-1.067 -2.673,-2.54 -3.46,-4.42 -0.793,-1.88 -1.19,-4.047 -1.19,-6.5 v 0 c 0,-3.24 0.573,-5.867 1.72,-7.88 1.147,-2.007 2.767,-3.483 4.86,-4.43 2.093,-0.94 4.563,-1.41 7.41,-1.41 v 0 c 0.98,0 1.79,0.047 2.43,0.14 0.64,0.1 1.1,0.19 1.38,0.27 v 0 -9.11 c 0,-0.387 0.08,-0.687 0.24,-0.9 v 0 c 0.687,-0.893 1.69,-1.86 3.01,-2.9 v 0 c 0.227,-0.167 0.43,-0.25 0.61,-0.25 v 0 c 0.207,0 0.41,0.083 0.61,0.25 v 0 c 0.7,0.533 1.29,1.037 1.77,1.51 0.48,0.473 0.89,0.937 1.23,1.39 v 0 c 0.16,0.213 0.24,0.513 0.24,0.9 v 0 33.21 c 0,0.307 -0.103,0.57 -0.31,0.79 -0.213,0.22 -0.483,0.33 -0.81,0.33 v 0 h -3.64 c -0.26,0 -0.49,-0.037 -0.69,-0.11 -0.207,-0.073 -0.4,-0.217 -0.58,-0.43 v 0 l -1.51,-1.95 h -0.17 c -0.213,0.327 -0.593,0.737 -1.14,1.23 -0.54,0.5 -1.327,0.937 -2.36,1.31 -1.033,0.373 -2.407,0.56 -4.12,0.56 z m 2.37,-6.25 v 0 c 1.467,0 2.62,-0.277 3.46,-0.83 0.833,-0.553 1.43,-1.253 1.79,-2.1 v 0 -10.23 c -0.26,-0.16 -0.69,-0.353 -1.29,-0.58 -0.607,-0.233 -1.453,-0.35 -2.54,-0.35 v 0 c -2.02,0 -3.533,0.66 -4.54,1.98 -1.013,1.32 -1.52,3.093 -1.52,5.32 v 0 c 0,2.313 0.423,4.023 1.27,5.13 0.847,1.107 1.97,1.66 3.37,1.66 z"
                                   fill="#bebebe"
                                   fill-rule="nonzero"
                                   stroke="none"
                                   stroke-width="1"
                                   stroke-linecap="butt"
                                   stroke-linejoin="miter"
                                   stroke-miterlimit="10"
                                   stroke-dasharray="none"
                                   stroke-dashoffset="0"
                                   font-family="none"
                                   font-weight="none"
                                   font-size="none"
                                   text-anchor="none"
                                   style="mix-blend-mode:normal"
                                   data-fill-palette-color="primary"
                                   opacity="1"
                                   id="path4" />
                                <path
                                   transform="translate(0,83.98)"
                                   d="M 17.36,0 H 9.94 C 8.26,0 6.987,-0.21 6.12,-0.63 5.247,-1.057 4.66,-1.75 4.36,-2.71 4.06,-3.67 3.91,-4.947 3.91,-6.54 v 0 -21.93 c 0,-1.627 0.15,-2.917 0.45,-3.87 0.3,-0.947 0.887,-1.63 1.76,-2.05 0.867,-0.413 2.14,-0.62 3.82,-0.62 v 0 h 6.71 c 3.907,0 6.91,0.717 9.01,2.15 2.1,1.433 3.15,3.45 3.15,6.05 v 0 c 0,1.287 -0.293,2.46 -0.88,3.52 -0.587,1.06 -1.357,1.963 -2.31,2.71 -0.953,0.747 -1.99,1.307 -3.11,1.68 v 0 0.1 c 1.433,0.193 2.727,0.66 3.88,1.4 1.16,0.747 2.083,1.71 2.77,2.89 0.693,1.18 1.04,2.533 1.04,4.06 v 0 c 0,2.28 -0.55,4.197 -1.65,5.75 -1.1,1.553 -2.613,2.727 -4.54,3.52 C 22.083,-0.393 19.867,0 17.36,0 Z m -5.57,-26.17 v 17.31 c 0,1.087 0.197,1.867 0.59,2.34 0.387,0.473 1.12,0.71 2.2,0.71 v 0 h 1.85 c 1.647,0 2.97,-0.423 3.97,-1.27 1,-0.847 1.5,-2.003 1.5,-3.47 v 0 c 0,-1.4 -0.49,-2.497 -1.47,-3.29 -0.973,-0.8 -2.233,-1.2 -3.78,-1.2 v 0 h 0.02 c -0.387,0 -0.677,-0.057 -0.87,-0.17 v 0 c -0.427,-0.28 -0.863,-0.6 -1.31,-0.96 -0.447,-0.367 -0.93,-0.81 -1.45,-1.33 v 0 c -0.167,-0.213 -0.25,-0.37 -0.25,-0.47 v 0 c 0,-0.127 0.083,-0.28 0.25,-0.46 v 0 c 0.52,-0.52 1.003,-0.97 1.45,-1.35 0.447,-0.373 0.883,-0.69 1.31,-0.95 v 0 c 0.227,-0.113 0.517,-0.17 0.87,-0.17 v 0 h -0.02 c 0.96,0 1.843,-0.357 2.65,-1.07 0.807,-0.72 1.21,-1.843 1.21,-3.37 v 0 c 0,-1.547 -0.433,-2.577 -1.3,-3.09 -0.86,-0.513 -1.967,-0.77 -3.32,-0.77 v 0 h -1.31 c -1.08,0 -1.813,0.227 -2.2,0.68 -0.393,0.46 -0.59,1.243 -0.59,2.35 z M 47.44,0.61 v 0 c -4.107,0 -7.353,-1.09 -9.74,-3.27 -2.393,-2.18 -3.59,-5.427 -3.59,-9.74 v 0 c 0,-4.427 1.24,-7.737 3.72,-9.93 2.48,-2.187 5.797,-3.28 9.95,-3.28 v 0 c 4,0 7.207,1.077 9.62,3.23 2.407,2.16 3.61,5.34 3.61,9.54 v 0 c 0,4.38 -1.203,7.717 -3.61,10.01 -2.413,2.293 -5.733,3.44 -9.96,3.44 z m 0.24,-5.91 v 0 c 1.793,0 3.143,-0.557 4.05,-1.67 0.913,-1.113 1.37,-3.023 1.37,-5.73 v 0 c 0,-2.567 -0.46,-4.377 -1.38,-5.43 -0.92,-1.047 -2.283,-1.57 -4.09,-1.57 v 0 c -1.74,0 -3.11,0.563 -4.11,1.69 -1,1.133 -1.5,2.97 -1.5,5.51 v 0 c 0,2.653 0.473,4.517 1.42,5.59 0.953,1.073 2.367,1.61 4.24,1.61 z m 30.57,5.91 v 0 c -4.107,0 -7.353,-1.09 -9.74,-3.27 -2.393,-2.18 -3.59,-5.427 -3.59,-9.74 v 0 c 0,-4.427 1.24,-7.737 3.72,-9.93 2.48,-2.187 5.797,-3.28 9.95,-3.28 v 0 c 4,0 7.207,1.077 9.62,3.23 2.407,2.16 3.61,5.34 3.61,9.54 v 0 c 0,4.38 -1.203,7.717 -3.61,10.01 -2.413,2.293 -5.733,3.44 -9.96,3.44 z m 0.24,-5.91 v 0 c 1.793,0 3.143,-0.557 4.05,-1.67 0.913,-1.113 1.37,-3.023 1.37,-5.73 v 0 c 0,-2.567 -0.46,-4.377 -1.38,-5.43 -0.92,-1.047 -2.283,-1.57 -4.09,-1.57 v 0 c -1.74,0 -3.11,0.563 -4.11,1.69 -1,1.133 -1.5,2.97 -1.5,5.51 v 0 c 0,2.653 0.477,4.517 1.43,5.59 0.947,1.073 2.357,1.61 4.23,1.61 z m 25.54,5.91 v 0 c -1.74,0 -3.187,-0.147 -4.34,-0.44 -1.147,-0.293 -2.063,-0.647 -2.75,-1.06 -0.693,-0.413 -1.237,-0.793 -1.63,-1.14 v 0 c -0.293,-0.273 -0.327,-0.58 -0.1,-0.92 v 0 l 2.5,-3.69 c 0.353,-0.52 0.76,-0.553 1.22,-0.1 v 0 c 0.467,0.46 1.103,0.903 1.91,1.33 0.807,0.433 1.813,0.65 3.02,0.65 v 0 c 1.073,0 1.957,-0.183 2.65,-0.55 0.687,-0.367 1.03,-0.9 1.03,-1.6 v 0 c 0,-0.487 -0.153,-0.887 -0.46,-1.2 -0.307,-0.307 -0.853,-0.623 -1.64,-0.95 -0.78,-0.327 -1.87,-0.74 -3.27,-1.24 v 0 c -2.067,-0.753 -3.627,-1.657 -4.68,-2.71 -1.06,-1.06 -1.59,-2.607 -1.59,-4.64 v 0 c 0,-1.873 0.517,-3.397 1.55,-4.57 1.033,-1.167 2.36,-2.023 3.98,-2.57 1.62,-0.547 3.307,-0.82 5.06,-0.82 v 0 c 2.233,0 3.8,0.207 4.7,0.62 0.907,0.413 1.49,0.737 1.75,0.97 v 0 c 0.247,0.207 0.417,0.45 0.51,0.73 v 0 c 0.213,0.633 0.377,1.47 0.49,2.51 v 0 c 0.067,0.607 -0.087,1.007 -0.46,1.2 v 0 c -0.2,0.113 -0.51,0.237 -0.93,0.37 -0.427,0.127 -0.85,0.24 -1.27,0.34 -0.427,0.093 -0.743,0.14 -0.95,0.14 v 0 c -0.067,0 -0.137,-0.02 -0.21,-0.06 -0.073,-0.04 -0.2,-0.14 -0.38,-0.3 v 0 c -0.213,-0.213 -0.577,-0.457 -1.09,-0.73 -0.507,-0.28 -1.21,-0.42 -2.11,-0.42 v 0 c -0.88,0 -1.617,0.143 -2.21,0.43 -0.593,0.287 -0.89,0.787 -0.89,1.5 v 0 c 0,0.78 0.38,1.367 1.14,1.76 0.753,0.387 2.003,0.89 3.75,1.51 v 0 c 1.367,0.473 2.557,0.99 3.57,1.55 1.02,0.56 1.807,1.293 2.36,2.2 0.553,0.9 0.83,2.117 0.83,3.65 v 0 c 0,1.987 -0.543,3.587 -1.63,4.8 -1.08,1.207 -2.463,2.083 -4.15,2.63 -1.68,0.547 -3.44,0.82 -5.28,0.82 z m 25.71,0 v 0 c -5.44,0 -8.16,-2.823 -8.16,-8.47 v 0 -11.45 h -2.76 c -0.487,0 -0.823,-0.103 -1.01,-0.31 -0.187,-0.2 -0.28,-0.543 -0.28,-1.03 v 0 -3.01 c 0,-0.487 0.093,-0.83 0.28,-1.03 0.187,-0.207 0.523,-0.31 1.01,-0.31 v 0 h 2.76 v -3.93 c 0,-0.393 0.083,-0.693 0.25,-0.9 v 0 c 0.68,-0.9 1.68,-1.87 3,-2.91 v 0 c 0.227,-0.16 0.43,-0.24 0.61,-0.24 v 0 c 0.193,0 0.39,0.08 0.59,0.24 v 0 c 0.7,0.54 1.29,1.043 1.77,1.51 0.48,0.473 0.89,0.94 1.23,1.4 v 0 c 0.16,0.207 0.24,0.507 0.24,0.9 v 0 3.93 h 4.32 c 0.493,0 0.833,0.103 1.02,0.31 0.187,0.2 0.28,0.543 0.28,1.03 v 0 3.01 c 0,0.487 -0.093,0.83 -0.28,1.03 -0.187,0.207 -0.527,0.31 -1.02,0.31 v 0 h -4.32 V -9.2 c 0,2.6 0.943,3.9 2.83,3.9 v 0 c 0.293,0 0.563,-0.027 0.81,-0.08 0.247,-0.06 0.457,-0.123 0.63,-0.19 v 0 c 0.347,-0.127 0.59,-0.173 0.73,-0.14 0.133,0.033 0.257,0.21 0.37,0.53 v 0 l 1.42,3.79 c 0.147,0.407 0.05,0.7 -0.29,0.88 v 0 c -0.247,0.113 -0.837,0.327 -1.77,0.64 -0.94,0.32 -2.36,0.48 -4.26,0.48 z m 22.65,0 v 0 c -2.747,0 -5.14,-0.443 -7.18,-1.33 -2.033,-0.887 -3.61,-2.267 -4.73,-4.14 -1.127,-1.873 -1.69,-4.29 -1.69,-7.25 v 0 c 0,-4.44 1.14,-7.8 3.42,-10.08 2.28,-2.28 5.307,-3.42 9.08,-3.42 v 0 c 2.46,0 4.54,0.44 6.24,1.32 1.7,0.88 2.993,2.093 3.88,3.64 0.887,1.547 1.33,3.31 1.33,5.29 v 0 c 0,1.94 -0.497,3.293 -1.49,4.06 -0.987,0.76 -2.433,1.14 -4.34,1.14 v 0 h -10.47 c 0.127,1.68 0.74,2.96 1.84,3.84 1.1,0.88 2.593,1.32 4.48,1.32 v 0 c 1.493,0 2.693,-0.227 3.6,-0.68 0.9,-0.447 1.53,-0.8 1.89,-1.06 v 0 c 0.313,-0.227 0.663,-0.333 1.05,-0.32 v 0 c 0.313,0 0.757,0.063 1.33,0.19 0.58,0.12 1.153,0.343 1.72,0.67 v 0 c 0.407,0.213 0.61,0.507 0.61,0.88 v 0 c 0,0.213 -0.04,0.513 -0.12,0.9 v 0 c -0.047,0.227 -0.127,0.557 -0.24,0.99 -0.113,0.433 -0.26,0.837 -0.44,1.21 v 0 c -0.1,0.18 -0.257,0.35 -0.47,0.51 v 0 c -0.32,0.227 -0.843,0.527 -1.57,0.9 -0.727,0.38 -1.717,0.71 -2.97,0.99 -1.253,0.287 -2.84,0.43 -4.76,0.43 z m -6,-15.77 v 0 h 7.96 c 0.827,0 1.24,-0.383 1.24,-1.15 v 0 c 0,-1.153 -0.363,-2.127 -1.09,-2.92 -0.72,-0.787 -1.803,-1.18 -3.25,-1.18 v 0 c -1.58,0 -2.74,0.503 -3.48,1.51 -0.74,1.013 -1.2,2.26 -1.38,3.74 z m 29.44,-7.01 v 1.81 h 0.1 c 1.22,-3.387 3.417,-5.08 6.59,-5.08 v 0 c 0.407,0 0.74,0.02 1,0.06 0.26,0.04 0.44,0.077 0.54,0.11 v 0 c 0.24,0.08 0.36,0.267 0.36,0.56 v 0 5.89 c 0,0.5 -0.293,0.637 -0.88,0.41 v 0 c -0.193,-0.08 -0.473,-0.163 -0.84,-0.25 -0.367,-0.093 -0.873,-0.14 -1.52,-0.14 v 0 c -1.68,0 -2.99,0.613 -3.93,1.84 -0.947,1.233 -1.42,2.907 -1.42,5.02 v 0 10.65 c 0,0.487 -0.103,0.823 -0.31,1.01 -0.2,0.187 -0.543,0.28 -1.03,0.28 v 0 h -5.03 c -0.487,0 -0.833,-0.093 -1.04,-0.28 -0.2,-0.187 -0.3,-0.523 -0.3,-1.01 v 0 -20.46 c 0,-0.393 0.08,-0.697 0.24,-0.91 v 0 c 0.34,-0.453 0.75,-0.917 1.23,-1.39 0.48,-0.473 1.07,-0.977 1.77,-1.51 v 0 c 0.133,-0.1 0.263,-0.167 0.39,-0.2 0.133,-0.033 0.247,-0.05 0.34,-0.05 v 0 c 0.233,0 0.463,0.083 0.69,0.25 v 0 c 1.347,1.06 2.29,1.963 2.83,2.71 v 0 c 0.147,0.193 0.22,0.42 0.22,0.68 z m 19.19,22.78 v 0 c -1.74,0 -3.183,-0.147 -4.33,-0.44 -1.153,-0.293 -2.073,-0.647 -2.76,-1.06 -0.693,-0.413 -1.237,-0.793 -1.63,-1.14 v 0 c -0.293,-0.273 -0.323,-0.58 -0.09,-0.92 v 0 l 2.49,-3.69 c 0.353,-0.52 0.76,-0.553 1.22,-0.1 v 0 c 0.473,0.46 1.11,0.903 1.91,1.33 0.807,0.433 1.813,0.65 3.02,0.65 v 0 c 1.073,0 1.957,-0.183 2.65,-0.55 0.693,-0.367 1.04,-0.9 1.04,-1.6 v 0 c 0,-0.487 -0.157,-0.887 -0.47,-1.2 -0.307,-0.307 -0.85,-0.623 -1.63,-0.95 -0.787,-0.327 -1.88,-0.74 -3.28,-1.24 v 0 c -2.067,-0.753 -3.627,-1.657 -4.68,-2.71 -1.06,-1.06 -1.59,-2.607 -1.59,-4.64 v 0 c 0,-1.873 0.517,-3.397 1.55,-4.57 1.033,-1.167 2.36,-2.023 3.98,-2.57 1.62,-0.547 3.31,-0.82 5.07,-0.82 v 0 c 2.227,0 3.793,0.207 4.7,0.62 0.9,0.413 1.48,0.737 1.74,0.97 v 0 c 0.247,0.207 0.417,0.45 0.51,0.73 v 0 c 0.213,0.633 0.377,1.47 0.49,2.51 v 0 c 0.067,0.607 -0.087,1.007 -0.46,1.2 v 0 c -0.2,0.113 -0.51,0.237 -0.93,0.37 -0.42,0.127 -0.843,0.24 -1.27,0.34 -0.42,0.093 -0.737,0.14 -0.95,0.14 v 0 c -0.067,0 -0.137,-0.02 -0.21,-0.06 -0.073,-0.04 -0.2,-0.14 -0.38,-0.3 v 0 c -0.207,-0.213 -0.567,-0.457 -1.08,-0.73 -0.513,-0.28 -1.22,-0.42 -2.12,-0.42 v 0 c -0.873,0 -1.61,0.143 -2.21,0.43 -0.593,0.287 -0.89,0.787 -0.89,1.5 v 0 c 0,0.78 0.38,1.367 1.14,1.76 0.753,0.387 2.003,0.89 3.75,1.51 v 0 c 1.367,0.473 2.557,0.99 3.57,1.55 1.02,0.56 1.807,1.293 2.36,2.2 0.553,0.9 0.83,2.117 0.83,3.65 v 0 c 0,1.987 -0.54,3.587 -1.62,4.8 -1.087,1.207 -2.47,2.083 -4.15,2.63 -1.687,0.547 -3.45,0.82 -5.29,0.82 z"
                                   fill="#bebebe"
                                   fill-rule="nonzero"
                                   stroke="none"
                                   stroke-width="1"
                                   stroke-linecap="butt"
                                   stroke-linejoin="miter"
                                   stroke-miterlimit="10"
                                   stroke-dasharray="none"
                                   stroke-dashoffset="0"
                                   font-family="none"
                                   font-weight="none"
                                   font-size="none"
                                   text-anchor="none"
                                   style="mix-blend-mode:normal"
                                   data-fill-palette-color="primary"
                                   opacity="1"
                                   id="path5" />
                              </g>
                            </svg>
                          </g>
                        </svg>
                      </g>
                      <g
                         transform="translate(0,208.43872)"
                         id="g8">
                        <svg
                           viewBox="0 0 375.744 18.482908"
                           height="18.482908"
                           width="375.74399"
                           version="1.1"
                           id="svg8">
                          <g
                             id="g7">
                            <svg
                               width="375.74399"
                               viewBox="4.5 -37.6 1000.1 49.2"
                               height="18.482908"
                               data-palette-color="#bebebe"
                               version="1.1"
                               id="svg7">
                              <path
                                 d="M 9,0 H 4.5 v -35 h 6.65 l 9.7,22.15 L 30.4,-35 h 6.8 V 0 H 32.45 V -28.95 L 23.1,-7.9 H 18.4 L 9,-28.95 Z m 47.1,0.6 v 0 Q 50.5,0.6 47.22,-2.98 43.95,-6.55 43.95,-13 v 0 q 0,-3.9 1.47,-6.98 1.48,-3.07 4.13,-4.85 2.65,-1.77 6.15,-1.77 v 0 q 3.75,0 6.22,1.62 2.48,1.63 3.73,4.38 1.25,2.75 1.25,6.05 v 0 q 0,1.75 -0.15,3.4 v 0 h -18.2 q 0.45,3.65 2.55,5.7 2.1,2.05 5.55,2.05 v 0 q 2.25,0 4.05,-0.48 1.8,-0.47 3.45,-1.22 v 0 l 1.05,3.85 Q 63.4,-0.45 61.15,0.08 58.9,0.6 56.1,0.6 Z m -7.6,-15.4 v 0 h 14.25 q 0,-3.8 -1.9,-5.85 -1.9,-2.05 -5.25,-2.05 v 0 q -2.9,0 -4.8,2.02 -1.9,2.03 -2.3,5.88 z M 83.3,0.6 v 0 Q 77.7,0.6 74.42,-2.98 71.15,-6.55 71.15,-13 v 0 q 0,-3.9 1.47,-6.98 1.48,-3.07 4.13,-4.85 2.65,-1.77 6.15,-1.77 v 0 q 3.75,0 6.22,1.62 2.48,1.63 3.73,4.38 1.25,2.75 1.25,6.05 v 0 q 0,1.75 -0.15,3.4 v 0 h -18.2 q 0.45,3.65 2.55,5.7 2.1,2.05 5.55,2.05 v 0 q 2.25,0 4.05,-0.48 1.8,-0.47 3.45,-1.22 v 0 l 1.05,3.85 Q 90.6,-0.45 88.35,0.08 86.1,0.6 83.3,0.6 Z m -7.6,-15.4 v 0 h 14.25 q 0,-3.8 -1.9,-5.85 -1.9,-2.05 -5.25,-2.05 v 0 q -2.9,0 -4.8,2.02 -1.9,2.03 -2.3,5.88 z m 33.49,15.4 v 0 q -3.75,0 -5.92,-2.48 -2.18,-2.47 -2.18,-7.07 v 0 -12.2 h -4.5 v -3.9 h 4.6 l 0.95,-8.2 h 3.45 v 8.2 h 7.2 v 3.9 h -7.2 V -8.6 q 0,2.9 1.23,4.05 1.22,1.15 2.92,1.15 v 0 q 1.25,0 2.38,-0.4 1.12,-0.4 2.07,-0.95 v 0 l 1.25,3.6 q -1,0.6 -2.7,1.18 -1.7,0.57 -3.55,0.57 z M 124.44,0 h -4.5 v -26 h 4.5 z m -2.25,-30.45 v 0 q -1.3,0 -2.22,-0.95 -0.93,-0.95 -0.93,-2.2 v 0 q 0,-1.45 0.85,-2.3 0.85,-0.85 2.3,-0.85 v 0 q 1.3,0 2.23,0.92 0.92,0.93 0.92,2.23 v 0 q 0,1.4 -0.85,2.27 -0.85,0.88 -2.3,0.88 z M 136.94,0 h -4.5 v -26 h 4.35 v 4.35 q 1.4,-2.1 3.57,-3.53 2.18,-1.42 5.18,-1.42 v 0 q 4.4,0 6.57,2.65 2.18,2.65 2.18,7 v 0 V 0 h -4.5 v -16.45 q 0,-2.8 -1.33,-4.5 -1.32,-1.7 -3.67,-1.7 v 0 q -2.3,0 -4.35,1.62 -2.05,1.63 -3.5,3.83 v 0 z m 34.65,11.6 v 0 q -2.3,0 -4.48,-0.55 -2.17,-0.55 -3.87,-1.65 v 0 l 1.65,-3.9 q 1.2,0.95 2.8,1.58 1.6,0.62 3.9,0.62 v 0 q 3.55,0 5.57,-1.87 2.03,-1.88 2.03,-5.98 v 0 -3.2 q -1,1.2 -2.88,2.28 Q 174.44,0 171.84,0 v 0 q -2.95,0 -5.6,-1.53 -2.65,-1.52 -4.3,-4.47 -1.65,-2.95 -1.65,-7.1 v 0 q 0,-3.9 1.62,-6.95 1.63,-3.05 4.38,-4.8 2.75,-1.75 6.05,-1.75 v 0 q 2.2,0 4,0.75 1.8,0.75 3.1,1.85 v 0 -2 h 4.1 v 25.4 q 0,4.3 -1.5,7 -1.5,2.7 -4.18,3.95 -2.67,1.25 -6.27,1.25 z M 172.84,-4 v 0 q 2,0 3.6,-0.9 1.6,-0.9 2.6,-2.1 v 0 -13.6 q -1.1,-0.8 -2.65,-1.45 -1.55,-0.65 -3.6,-0.65 v 0 q -2.05,0 -3.85,1.1 -1.8,1.1 -2.93,3.17 -1.12,2.08 -1.12,5.08 v 0 q 0,2.85 1.12,4.95 1.13,2.1 2.93,3.25 1.8,1.15 3.9,1.15 z m 43.84,4.6 v 0 q -5.6,0 -8.87,-3.58 -3.28,-3.57 -3.28,-10.02 v 0 q 0,-3.9 1.48,-6.98 1.47,-3.07 4.12,-4.85 2.65,-1.77 6.15,-1.77 v 0 q 3.75,0 6.23,1.62 2.47,1.63 3.72,4.38 1.25,2.75 1.25,6.05 v 0 q 0,1.75 -0.15,3.4 v 0 h -18.2 q 0.45,3.65 2.55,5.7 2.1,2.05 5.55,2.05 v 0 q 2.25,0 4.05,-0.48 1.8,-0.47 3.45,-1.22 v 0 l 1.05,3.85 q -1.8,0.8 -4.05,1.33 -2.25,0.52 -5.05,0.52 z m -7.6,-15.4 v 0 h 14.25 q 0,-3.8 -1.9,-5.85 -1.9,-2.05 -5.25,-2.05 v 0 q -2.9,0 -4.8,2.02 -1.9,2.03 -2.3,5.88 z M 245.13,0 h -4.7 l -10.45,-24.8 4.1,-1.7 8.85,21.4 8.85,-21.4 3.85,1.7 z m 24.39,0.6 v 0 q -5.59,0 -8.87,-3.58 -3.27,-3.57 -3.27,-10.02 v 0 q 0,-3.9 1.47,-6.98 1.47,-3.07 4.13,-4.85 2.65,-1.77 6.15,-1.77 v 0 q 3.75,0 6.22,1.62 2.47,1.63 3.72,4.38 1.25,2.75 1.25,6.05 v 0 q 0,1.75 -0.14,3.4 v 0 h -18.2 q 0.45,3.65 2.54,5.7 2.11,2.05 5.55,2.05 v 0 q 2.25,0 4.06,-0.48 1.8,-0.47 3.44,-1.22 v 0 l 1.06,3.85 q -1.81,0.8 -4.06,1.33 -2.25,0.52 -5.05,0.52 z m -7.59,-15.4 v 0 h 14.25 q 0,-3.8 -1.91,-5.85 -1.89,-2.05 -5.25,-2.05 v 0 q -2.89,0 -4.79,2.02 -1.91,2.03 -2.3,5.88 z M 290.82,0 h -4.5 v -26 h 4.35 v 5.65 q 0.65,-1.65 1.75,-3.08 1.1,-1.42 2.75,-2.3 1.65,-0.87 3.85,-0.87 v 0 q 0.75,0 1.5,0.07 0.75,0.08 1.25,0.23 v 0 l -1.35,4.65 q -0.95,-0.4 -2.25,-0.4 v 0 q -1.85,0 -3.52,1.05 -1.68,1.05 -2.75,3.25 -1.08,2.2 -1.08,5.6 v 0 z m 16.1,11.6 v 0 q -1.5,0 -2.63,-0.3 -1.12,-0.3 -1.77,-0.7 v 0 l 1,-3.75 q 0.6,0.35 1.5,0.6 0.9,0.25 2,0.25 v 0 q 2.1,0 3.75,-1.35 1.65,-1.35 3.15,-5.3 v 0 l 1.15,-3 h -2.4 l -10.15,-22.85 4,-1.8 9.7,21.65 7.55,-21.45 4.15,1.6 -9.55,26.1 q -1.45,4 -3.15,6.25 -1.7,2.25 -3.75,3.15 -2.05,0.9 -4.55,0.9 z m 49.59,-11 v 0 q -3.75,0 -5.92,-2.48 -2.18,-2.47 -2.18,-7.07 v 0 -12.2 h -4.5 v -3.9 h 4.6 l 0.95,-8.2 h 3.45 v 8.2 h 7.2 v 3.9 h -7.2 V -8.6 q 0,2.9 1.23,4.05 1.22,1.15 2.92,1.15 v 0 q 1.25,0 2.38,-0.4 1.12,-0.4 2.07,-0.95 v 0 l 1.25,3.6 q -1,0.6 -2.7,1.18 -1.7,0.57 -3.55,0.57 z M 371.76,0 h -4.5 v -37 h 4.5 v 15.15 q 1.4,-2.05 3.55,-3.4 2.15,-1.35 5.05,-1.35 v 0 q 4.4,0 6.58,2.65 2.17,2.65 2.17,7 v 0 V 0 h -4.5 v -16.45 q 0,-2.8 -1.3,-4.5 -1.3,-1.7 -3.65,-1.7 v 0 q -2.3,0 -4.37,1.62 -2.08,1.63 -3.53,3.83 v 0 z m 29.6,0 h -4.5 v -26 h 4.5 z m -2.25,-30.45 v 0 q -1.3,0 -2.23,-0.95 -0.92,-0.95 -0.92,-2.2 v 0 q 0,-1.45 0.85,-2.3 0.85,-0.85 2.3,-0.85 v 0 q 1.3,0 2.23,0.92 0.92,0.93 0.92,2.23 v 0 q 0,1.4 -0.85,2.27 -0.85,0.88 -2.3,0.88 z M 413.86,0 h -4.5 v -26 h 4.35 v 5.65 q 0.65,-1.65 1.75,-3.08 1.1,-1.42 2.75,-2.3 1.65,-0.87 3.85,-0.87 v 0 q 0.75,0 1.5,0.07 0.75,0.08 1.25,0.23 v 0 l -1.35,4.65 q -0.95,-0.4 -2.25,-0.4 v 0 q -1.85,0 -3.53,1.05 -1.67,1.05 -2.75,3.25 -1.07,2.2 -1.07,5.6 v 0 z m 23.8,0.6 v 0 q -3.21,0 -5.85,-1.65 -2.65,-1.65 -4.2,-4.68 -1.55,-3.02 -1.55,-7.12 v 0 q 0,-3.95 1.57,-7.05 1.57,-3.1 4.2,-4.9 2.62,-1.8 5.78,-1.8 v 0 q 2.59,0 4.47,1.05 1.87,1.05 2.92,2.15 v 0 -13.6 h 4.5 v 30.7 q 0,1.9 0.93,2.47 0.93,0.58 2.02,0.58 v 0 l -0.95,3.5 q -4.75,0 -5.8,-3.8 v 0 q -1.09,1.55 -3.07,2.85 -1.97,1.3 -4.97,1.3 z m 1,-4 v 0 q 1.84,0 3.52,-0.88 1.68,-0.87 2.82,-2.27 v 0 -12.9 q -0.94,-1.2 -2.64,-2.23 -1.7,-1.02 -3.75,-1.02 v 0 q -2.41,0 -4.2,1.3 -1.8,1.3 -2.78,3.47 -0.97,2.18 -0.97,4.93 v 0 q 0,2.75 1.04,4.92 1.05,2.18 2.88,3.43 1.83,1.25 4.08,1.25 z M 485.45,0 H 480.7 V -30.8 H 469.95 V -35 h 26.25 v 4.2 h -10.75 z m 19.75,0 h -4.5 v -37 h 4.5 v 15.15 q 1.4,-2.05 3.55,-3.4 2.15,-1.35 5.05,-1.35 v 0 q 4.4,0 6.57,2.65 2.18,2.65 2.18,7 v 0 V 0 h -4.5 v -16.45 q 0,-2.8 -1.3,-4.5 -1.3,-1.7 -3.65,-1.7 v 0 q -2.3,0 -4.38,1.62 -2.07,1.63 -3.52,3.83 v 0 z m 33.59,0.6 v 0 q -2.25,0 -4.25,-0.95 -2,-0.95 -3.25,-3.08 -1.25,-2.12 -1.25,-5.67 v 0 -16.9 h 4.5 v 16.3 q 0,3.05 1.3,4.67 1.3,1.63 3.8,1.63 v 0 q 2.05,0 3.98,-0.83 1.92,-0.82 3.42,-2.22 v 0 V -26 h 4.5 v 19.25 q 0,2.15 0.93,2.82 0.92,0.68 2.03,0.68 v 0 l -0.96,3.5 q -4.65,0 -5.75,-3.7 v 0 q -1.75,1.8 -4.04,2.92 -2.31,1.13 -4.96,1.13 z M 564.99,0 h -4.5 v -26 h 4.35 v 5.65 q 0.65,-1.65 1.75,-3.08 1.1,-1.42 2.75,-2.3 1.65,-0.87 3.85,-0.87 v 0 q 0.75,0 1.5,0.07 0.75,0.08 1.25,0.23 v 0 l -1.35,4.65 q -0.95,-0.4 -2.25,-0.4 v 0 q -1.85,0 -3.52,1.05 -1.68,1.05 -2.75,3.25 -1.08,2.2 -1.08,5.6 v 0 z m 21.2,0.6 v 0 q -2.95,0 -5.33,-0.75 -2.37,-0.75 -3.92,-1.95 v 0 l 1.9,-3.75 q 1.3,1.1 3.27,1.82 1.98,0.73 4.23,0.73 v 0 q 2.8,0 4.22,-0.93 1.43,-0.92 1.43,-2.37 v 0 q 0,-1.05 -0.53,-1.85 -0.52,-0.8 -1.92,-1.58 -1.4,-0.77 -4.05,-1.67 v 0 q -3.65,-1.25 -5.48,-2.98 -1.82,-1.72 -1.82,-4.77 v 0 q 0,-3 2.62,-5.08 2.63,-2.07 7.28,-2.07 v 0 q 2.5,0 4.45,0.52 1.95,0.53 3.5,1.33 v 0 l -1.25,3.7 q -1.35,-0.8 -3.08,-1.3 -1.72,-0.5 -3.82,-0.5 v 0 q -2.6,0 -3.95,1.05 -1.35,1.05 -1.35,2.3 v 0 q 0,1.2 1.05,2.05 1.05,0.85 4.1,1.85 v 0 q 4.95,1.65 6.9,3.65 1.95,2 1.95,5 v 0 q 0,3.5 -2.83,5.52 -2.82,2.03 -7.57,2.03 z m 26.25,0 v 0 q -3.2,0 -5.85,-1.65 -2.65,-1.65 -4.2,-4.68 -1.55,-3.02 -1.55,-7.12 v 0 q 0,-3.95 1.57,-7.05 1.58,-3.1 4.2,-4.9 2.63,-1.8 5.78,-1.8 v 0 q 2.6,0 4.47,1.05 1.88,1.05 2.93,2.15 v 0 -13.6 h 4.5 v 30.7 q 0,1.9 0.92,2.47 0.93,0.58 2.03,0.58 v 0 l -0.95,3.5 q -4.75,0 -5.8,-3.8 v 0 q -1.1,1.55 -3.08,2.85 -1.97,1.3 -4.97,1.3 z m 1,-4 v 0 q 1.85,0 3.52,-0.88 1.68,-0.87 2.83,-2.27 v 0 -12.9 q -0.95,-1.2 -2.65,-2.23 -1.7,-1.02 -3.75,-1.02 v 0 q -2.4,0 -4.2,1.3 -1.8,1.3 -2.78,3.47 -0.97,2.18 -0.97,4.93 v 0 q 0,2.75 1.05,4.92 1.05,2.18 2.87,3.43 1.83,1.25 4.08,1.25 z m 29.24,4 v 0 q -3.25,0 -5.9,-1.65 -2.65,-1.65 -4.22,-4.68 -1.58,-3.02 -1.58,-7.12 v 0 q 0,-3.9 1.58,-7 1.57,-3.1 4.35,-4.93 2.77,-1.82 6.37,-1.82 v 0 q 2.25,0 4.08,0.77 1.82,0.78 3.17,1.93 v 0 -2.1 h 4.1 v 19.7 q 0,1.9 0.93,2.47 0.92,0.58 2.02,0.58 v 0 l -0.95,3.5 q -4.8,0 -5.8,-3.9 v 0 q -1.15,1.6 -3.12,2.92 -1.98,1.33 -5.03,1.33 z m 1,-4 v 0 q 1.9,0 3.6,-0.93 1.7,-0.92 2.85,-2.32 v 0 -13.95 q -1.35,-0.95 -2.97,-1.53 -1.63,-0.57 -3.43,-0.57 v 0 q -2.4,0 -4.22,1.22 -1.83,1.23 -2.88,3.41 -1.05,2.17 -1.05,5.07 v 0 q 0,2.8 1.05,4.97 1.05,2.18 2.9,3.4 1.85,1.23 4.15,1.23 z m 19.55,15 v 0 q -1.5,0 -2.62,-0.3 -1.13,-0.3 -1.78,-0.7 v 0 l 1,-3.75 q 0.6,0.35 1.5,0.6 0.9,0.25 2,0.25 v 0 q 2.1,0 3.75,-1.35 1.65,-1.35 3.15,-5.3 v 0 l 1.15,-3 h -2.4 l -10.15,-22.85 4,-1.8 9.7,21.65 7.55,-21.45 4.15,1.6 -9.55,26.1 q -1.45,4 -3.15,6.25 -1.7,2.25 -3.75,3.15 -2.05,0.9 -4.55,0.9 z m 51.45,-11 v 0 q -3.7,0 -6.65,-1.73 -2.95,-1.72 -4.63,-4.8 Q 701.73,-9 701.73,-13 v 0 q 0,-4.2 1.7,-7.25 1.7,-3.05 4.65,-4.7 2.95,-1.65 6.6,-1.65 v 0 q 3.65,0 6.57,1.65 2.93,1.65 4.65,4.67 1.73,3.03 1.73,7.18 v 0 q 0,4.15 -1.7,7.22 -1.7,3.08 -4.63,4.78 -2.92,1.7 -6.62,1.7 z m 0,-4 v 0 q 3.95,0 6.15,-2.68 2.2,-2.67 2.2,-6.92 v 0 q 0,-2.6 -1.1,-4.78 -1.1,-2.17 -2.98,-3.5 -1.87,-1.32 -4.27,-1.32 v 0 q -3.95,0 -6.15,2.6 -2.2,2.6 -2.2,6.9 v 0 q 0,2.6 1.1,4.82 1.1,2.23 2.97,3.55 1.88,1.33 4.28,1.33 z M 738.62,0 h -4.5 v -21.15 h -4 v -3.9 h 4 v -3.05 q 0,-4.4 2.45,-6.95 2.45,-2.55 6.4,-2.55 v 0 q 2.05,0 3.6,0.47 1.55,0.48 2.95,1.18 v 0 l -1.35,3.8 q -1.05,-0.55 -2.25,-1 -1.2,-0.45 -2.65,-0.45 v 0 q -2.1,0 -3.37,1.33 -1.28,1.32 -1.28,3.87 v 0 3.35 h 7.7 v 3.9 h -7.7 z m 36.5,0.6 v 0 q -3.75,0 -5.93,-2.48 -2.17,-2.47 -2.17,-7.07 v 0 -12.2 h -4.5 v -3.9 h 4.6 l 0.95,-8.2 h 3.45 v 8.2 h 7.2 v 3.9 h -7.2 V -8.6 q 0,2.9 1.22,4.05 1.23,1.15 2.93,1.15 v 0 q 1.25,0 2.37,-0.4 1.13,-0.4 2.08,-0.95 v 0 l 1.25,3.6 q -1,0.6 -2.7,1.18 -1.7,0.57 -3.55,0.57 z M 790.37,0 h -4.5 v -37 h 4.5 v 15.15 q 1.4,-2.05 3.55,-3.4 2.15,-1.35 5.05,-1.35 v 0 q 4.4,0 6.57,2.65 2.18,2.65 2.18,7 v 0 V 0 h -4.5 v -16.45 q 0,-2.8 -1.3,-4.5 -1.3,-1.7 -3.65,-1.7 v 0 q -2.3,0 -4.38,1.62 -2.07,1.63 -3.52,3.83 v 0 z m 35.49,0.6 v 0 q -5.6,0 -8.87,-3.58 -3.28,-3.57 -3.28,-10.02 v 0 q 0,-3.9 1.48,-6.98 1.47,-3.07 4.12,-4.85 2.65,-1.77 6.15,-1.77 v 0 q 3.75,0 6.23,1.62 2.47,1.63 3.72,4.38 1.25,2.75 1.25,6.05 v 0 q 0,1.75 -0.15,3.4 v 0 h -18.2 q 0.45,3.65 2.55,5.7 2.1,2.05 5.55,2.05 v 0 q 2.25,0 4.05,-0.48 1.8,-0.47 3.45,-1.22 v 0 l 1.05,3.85 q -1.8,0.8 -4.05,1.33 -2.25,0.52 -5.05,0.52 z m -7.6,-15.4 v 0 h 14.25 q 0,-3.8 -1.9,-5.85 -1.9,-2.05 -5.25,-2.05 v 0 q -2.9,0 -4.8,2.02 -1.9,2.03 -2.3,5.88 z M 862.16,0 h -4.5 v -26 h 4.35 v 4.35 q 1.4,-2.1 3.55,-3.53 2.15,-1.42 4.9,-1.42 v 0 q 3.1,0 5.07,1.5 1.98,1.5 2.78,4 v 0 q 1.55,-2.3 3.67,-3.9 2.13,-1.6 5.28,-1.6 v 0 q 4.25,0 6.32,2.67 2.08,2.68 2.08,6.98 v 0 V 0 h -4.5 v -16.6 q 0,-2.7 -1.25,-4.38 -1.25,-1.67 -3.45,-1.67 v 0 q -2.25,0 -4.18,1.67 -1.92,1.68 -3.37,3.93 v 0 V 0 h -4.5 v -16.6 q 0,-2.7 -1.25,-4.38 -1.25,-1.67 -3.45,-1.67 v 0 q -2.2,0 -4.15,1.62 -1.95,1.63 -3.4,3.83 v 0 z m 52.2,0.6 v 0 q -3.7,0 -6.65,-1.73 -2.95,-1.72 -4.63,-4.8 Q 901.41,-9 901.41,-13 v 0 q 0,-4.2 1.7,-7.25 1.7,-3.05 4.65,-4.7 2.95,-1.65 6.6,-1.65 v 0 q 3.65,0 6.57,1.65 2.93,1.65 4.65,4.67 1.73,3.03 1.73,7.18 v 0 q 0,4.15 -1.7,7.22 -1.7,3.08 -4.63,4.78 -2.92,1.7 -6.62,1.7 z m 0,-4 v 0 q 3.95,0 6.15,-2.68 2.2,-2.67 2.2,-6.92 v 0 q 0,-2.6 -1.1,-4.78 -1.1,-2.17 -2.98,-3.5 -1.87,-1.32 -4.27,-1.32 v 0 q -3.95,0 -6.15,2.6 -2.2,2.6 -2.2,6.9 v 0 q 0,2.6 1.1,4.82 1.1,2.23 2.97,3.55 1.88,1.33 4.28,1.33 z M 937.8,0 h -4.5 v -26 h 4.35 v 4.35 q 1.4,-2.1 3.58,-3.53 2.17,-1.42 5.17,-1.42 v 0 q 4.4,0 6.58,2.65 2.17,2.65 2.17,7 v 0 V 0 h -4.5 v -16.45 q 0,-2.8 -1.32,-4.5 -1.33,-1.7 -3.68,-1.7 v 0 q -2.3,0 -4.35,1.62 -2.05,1.63 -3.5,3.83 v 0 z M 972,0.6 v 0 q -3.75,0 -5.92,-2.48 -2.18,-2.47 -2.18,-7.07 v 0 -12.2 h -4.5 v -3.9 h 4.6 l 0.95,-8.2 h 3.45 v 8.2 h 7.2 v 3.9 h -7.2 V -8.6 q 0,2.9 1.23,4.05 1.22,1.15 2.92,1.15 v 0 q 1.25,0 2.38,-0.4 1.12,-0.4 2.07,-0.95 v 0 l 1.25,3.6 q -1,0.6 -2.7,1.18 Q 973.85,0.6 972,0.6 Z M 987.25,0 h -4.5 v -37 h 4.5 v 15.15 q 1.4,-2.05 3.55,-3.4 2.15,-1.35 5.05,-1.35 v 0 q 4.4,0 6.57,2.65 2.18,2.65 2.18,7 v 0 V 0 h -4.5 v -16.45 q 0,-2.8 -1.3,-4.5 -1.3,-1.7 -3.65,-1.7 v 0 q -2.3,0 -4.38,1.62 -2.07,1.63 -3.52,3.83 v 0 z"
                                 opacity="1"
                                 fill="#bebebe"
                                 class="slogan-text-1"
                                 data-fill-palette-color="secondary"
                                 id="text-1" />
                            </svg>
                          </g>
                        </svg>
                      </g>
                    </svg>
                  </g>
                </svg>
              </g>
              <g
                 transform="matrix(1,0,0,1,0,0.56730405849882)"
                 id="g13">
                <svg
                   viewBox="0 0 240.83948316553503 226.9216233995328"
                   height="226.9216233995328"
                   width="240.83948316553503"
                   version="1.1"
                   id="svg12">
                  <g
                     id="g12">
                    <svg
                       version="1.1"
                       x="0"
                       y="0"
                       viewBox="2.479999921669955 5 95.52000007833004 90"
                       enable-background="new 0 0 100 100"
                       xml:space="preserve"
                       height="226.9216233995328"
                       width="240.83948316553503"
                       class="icon-icon-0"
                       data-fill-palette-color="accent"
                       id="icon-0"><g
                         fill="#bebebe"
                         data-fill-palette-color="accent"
                         id="g11"><g
                           fill="#bebebe"
                           data-fill-palette-color="accent"
                           id="g10"><path
                             d="M95.03 5H33.45C32.208 5 30 6.242 30 7.485V53.884C30 53.041 25.843 52.605 23.377 52.605 11.688 52.605 2.48 62.114 2.48 73.8 2.479 85.488 12.053 95 23.74 95 35.429 95 45 85.488 45 73.801V40H83V53.882C80 53.042 78.394 52.606 75.928 52.606 64.239 52.606 54.809 62.115 54.809 73.801S64.715 95 76.402 95C88.092 95 98 85.488 98 73.801V7.485C98 6.242 96.272 5 95.03 5M93 73.801C93 83.008 85.4 90.498 76.191 90.498 66.987 90.498 59.44 83.008 59.44 73.801S66.903 57.105 76.109 57.105C79.029 57.105 81.898 57.883 84.441 59.356 85.136 59.761 86.085 59.761 86.783 59.361 87.481 58.957 88 58.213 88 57.41V35.908C88 34.663 86.798 35 85.558 35H42.923C41.681 35 40 34.663 40 35.908V73.801C40 83.008 32.847 90.498 23.641 90.498 14.432 90.498 7.111 83.008 7.111 73.801S14.685 57.105 23.894 57.105C26.812 57.105 29.738 57.883 32.282 59.356 32.978 59.761 33.508 59.761 34.203 59.361 34.899 58.957 35 58.213 35 57.41V10H93z"
                             fill="#bebebe"
                             data-fill-palette-color="accent"
                             id="path9" /><path
                             d="M88 17.248A2.25 2.25 0 0 0 85.749 15H42.251A2.25 2.25 0 0 0 40 17.248V27.752A2.25 2.25 0 0 0 42.251 30H85.749A2.25 2.25 0 0 0 88 27.752zM45 20H83V25H45z"
                             fill="#bebebe"
                             data-fill-palette-color="accent"
                             id="path10" /></g></g></svg>
                  </g>
                </svg>
              </g>
            </svg>
          </g>
          <defs
             id="defs14" />
        </svg>
        <rect
           width="395.52"
           height="134.5942578474847"
           fill="none"
           stroke="none"
           visibility="hidden"
           id="rect14" />
      </g>
    </svg>
  </g>
</svg>
